<?xml version="1.0"?>
<svg fill="#000000" xmlns="http://www.w3.org/2000/svg" id="Icons" viewBox="0 0 74 74" width="512" height="512"><path d="M46.027,55.75H29.132a1,1,0,0,1,0-2H46.027a2.612,2.612,0,0,0,1.858-.762c.045-.045.083-.088.12-.129a.954.954,0,0,1,.065-.088,2.6,2.6,0,0,0,.6-1.667,2.649,2.649,0,0,0-2.646-2.646h-9.44a1,1,0,0,1-.74-.328,13.45,13.45,0,0,0-9.936-4.393H13.774a1,1,0,1,1,0-2H25.911a15.457,15.457,0,0,1,11.11,4.72h9.006A4.651,4.651,0,0,1,50.673,51.1a4.6,4.6,0,0,1-.993,2.857.923.923,0,0,1-.085.117c-.1.112-.186.214-.289.317A4.616,4.616,0,0,1,46.027,55.75Z"/><path d="M37.542,67.58a21.2,21.2,0,0,1-7.227-1.265L13.433,60.185a1,1,0,0,1,.683-1.88L31,64.436a19.352,19.352,0,0,0,15.313-.95l22.908-11.7a9.276,9.276,0,0,0-8.93-1.481l-10.986,4a.977.977,0,0,1-.466.118,1,1,0,0,1-.687-1.736.978.978,0,0,1,.344-.215l11.113-4.046a11.281,11.281,0,0,1,11.1,2l.944.818a1,1,0,0,1-.2,1.646L47.218,65.267A21.359,21.359,0,0,1,37.542,67.58Z"/><path d="M13.77,63.014H3a1,1,0,0,1-1-1V40.24a1,1,0,0,1,1-1H13.77a1,1,0,0,1,1,1V62.014A1,1,0,0,1,13.77,63.014Zm-9.77-2h8.77V41.24H4Z"/><path d="M46.5,42.08A17.833,17.833,0,1,1,64.333,24.247,17.854,17.854,0,0,1,46.5,42.08Zm0-33.667A15.833,15.833,0,1,0,62.333,24.247,15.851,15.851,0,0,0,46.5,8.414Z"/><path d="M46.5,25.247a5.484,5.484,0,1,1,5.656-5.481,1,1,0,0,1-2,0A3.661,3.661,0,1,0,46.5,23.247a1,1,0,0,1,0,2Z"/><path d="M46.5,34.208a5.577,5.577,0,0,1-5.656-5.481,1,1,0,1,1,2,0A3.661,3.661,0,1,0,46.5,25.247a1,1,0,0,1,0-2,5.484,5.484,0,1,1,0,10.962Z"/><path d="M46.5,35.889a1,1,0,0,1-1-1V13.6a1,1,0,0,1,2,0V34.889A1,1,0,0,1,46.5,35.889Z"/></svg>
